<?xml version="1.0" encoding="UTF-8"?>
<svg xmlns="http://www.w3.org/2000/svg" version="1.1" viewBox="0 0 36 36">
  <defs>
    <style>
      .cls-1 {
        fill-opacity: 0;
      }

      .cls-1, .cls-2 {
        fill: #a40643;
      }
    </style>
  </defs>
  <!-- Generator: Adobe Illustrator 28.7.1, SVG Export Plug-In . SVG Version: 1.2.0 Build 142)  -->
  <g>
    <g id="Capa_1">
      <path class="cls-2" d="M21,12H7c-.6,0-1-.4-1-1v-4c0-.6.4-1,1-1h14c.6,0,1,.4,1,1v4c0,.6-.4,1-1,1ZM8,10h12v-2.1h-12v2.1Z"/>
      <path class="cls-2" d="M21,14.1H7c-.6,0-1,.4-1,1v3.9c0,.6.4,1,1,1h11.4l3.6-3.7v-1.2c0-.6-.4-1-1-1ZM20,18h-12v-2h12v2Z"/>
      <path class="cls-2" d="M11.1,31.5h0c0,0,.3-1.4.3-1.4h-7.4V4h20v10.2l2-1.9V3c0-.6-.4-1-1-1H3c-.6,0-1,.4-1,1v28c0,.6.4,1,1,1h8c0-.2,0-.3,0-.5Z"/>
      <path class="cls-2" d="M22,19.2l-.8.8c.4,0,.7-.4.8-.8Z"/>
      <path class="cls-2" d="M6,26.9c0,.6.4,1,1,1h4.8l.3-1.3v-.5c.1,0,.1,0,.1,0h-4.3v-2h6.3l2-2H7c-.6,0-1,.4-1,1v3.9Z"/>
      <path class="cls-2" d="M33.5,16.7l-3.4-3.4c-.6-.6-1.6-.6-2.3,0,0,0,0,0,0,0h0l-13.7,13.8-1.1,4.8c-.2.9.4,1.7,1.3,1.9,0,0,0,0,0,0,.1,0,.2,0,.3,0,.1,0,.2,0,.4,0l4.9-1.1,13.7-13.7c.6-.6.6-1.6,0-2.3,0,0,0,0,0,0h0ZM18.8,30.9l-3.7.8.9-3.6,10.3-10.4,2.8,2.8-10.3,10.4ZM30.2,19.4l-2.8-2.8,1.6-1.6,2.8,2.8-1.6,1.5Z"/>
      <rect class="cls-1" y="0" width="36" height="36"/>
    </g>
  </g>
</svg>