<?xml version="1.0" encoding="UTF-8"?>
<svg xmlns="http://www.w3.org/2000/svg" version="1.1" viewBox="0 0 512 512">
  <defs>
    <style>
      .cls-1 {
        fill: #a40643;
      }
    </style>
  </defs>
  <!-- Generator: Adobe Illustrator 28.7.1, SVG Export Plug-In . SVG Version: 1.2.0 Build 142)  -->
  <g>
    <g id="icon">
      <path class="cls-1" d="M461.7,53.8h-79.1l-97.5-31.8c-11.9-3.9-24.8-2.2-35.3,4.5l-58.7,37.7c-2.7,1.7-3.4,5.3-1.7,7.9,1.7,2.7,5.3,3.4,7.9,1.7l58.7-37.7c7.6-4.9,17-6.1,25.6-3.2l98.4,32c.6.2,1.2.3,1.8.3h74.2v96.3h-42.6c-2.1,0-4.1,1.2-5.1,3.1-6.4,10.9-16.2,19.3-27.9,24.1v-25.8c9.2-3.9,19-10.7,25.3-22.6,1.5-2.8.4-6.3-2.4-7.8s-6.3-.4-7.8,2.4h0c-10.9,20.8-38,21.8-38.1,21.8-36.3,0-46.8-25.3-47.2-26.4-.9-2.2-3-3.7-5.4-3.7h-53.9c-8.5.2-15.5-6.5-15.7-14.9-.2-8.5,6.5-15.5,14.9-15.7.3,0,.5,0,.8,0h64.3c3.2.1,5.8-2.3,6-5.5.1-3.2-2.3-5.8-5.5-6-.2,0-.3,0-.5,0h-64.3c-14.8-.3-27,11.5-27.3,26.3-.3,14.8,11.5,27,26.3,27.3.3,0,.7,0,1,0h50.3c4.8,8.8,20.1,30.1,56.3,30.1,3.9-.2,7.7-.7,11.5-1.6v85c0,4.7-3.8,8.5-8.5,8.5H64.5c-4.7,0-8.4-3.8-8.5-8.4V104.6c0-4.7,3.8-8.5,8.5-8.5h146.2c3.2.1,5.8-2.3,6-5.5.1-3.2-2.3-5.8-5.5-6-.2,0-.3,0-.5,0H64.5c-11,0-19.9,8.9-19.9,19.9v147.1c0,11,8.9,19.9,19.9,19.9h295.9c11,0,19.9-8.9,19.9-19.9v-50.8c20.6-6.6,32.1-21.4,36.3-27.9h45.1c3.2,0,5.7-2.6,5.7-5.7V59.5c0-3.2-2.6-5.7-5.7-5.7Z"/>
      <path class="cls-1" d="M83.4,208.3v-60.4c12.3-2.4,22-12,24.4-24.4h97.9c3.2-.1,5.6-2.8,5.5-6-.1-3-2.5-5.4-5.5-5.5h-103.1c-3.2,0-5.7,2.6-5.7,5.7,0,10.6-8.6,19.2-19.2,19.2,0,0,0,0,0,0-3.1,0-5.7,2.6-5.7,5.7v70.8c0,3.2,2.6,5.7,5.7,5.7,0,0,0,0,0,0,10.6,0,19.2,8.6,19.2,19.2,0,3.2,2.6,5.7,5.7,5.7,0,0,0,0,0,0h219.6c3.2,0,5.7-2.6,5.7-5.7h0c0-10.6,8.6-19.2,19.2-19.2,3.2,0,5.7-2.6,5.7-5.7h0v-25.9c.1-3.2-2.3-5.8-5.5-6s-5.8,2.3-6,5.5c0,.2,0,.3,0,.5v20.7c-12.3,2.4-22,12-24.4,24.4H107.8c-2.4-12.3-12-22-24.4-24.4Z"/>
      <path class="cls-1" d="M204.9,159.2h13.8c3.2-.1,5.6-2.8,5.5-6-.1-3-2.5-5.4-5.5-5.5h-4.5v-3.7c.1-3.2-2.3-5.8-5.5-6-3.2-.1-5.8,2.3-6,5.5,0,.2,0,.3,0,.5v3.8c-9.9.7-17.3,9.4-16.6,19.3.7,9.7,9,17.1,18.8,16.6h7.1c3.6,0,6.6,2.9,6.6,6.6s-2.9,6.6-6.6,6.6h-13.8c-3.2-.1-5.8,2.3-6,5.5-.1,3.2,2.3,5.8,5.5,6,.2,0,.3,0,.5,0h4.5v3.7c.1,3.2,2.8,5.6,6,5.5,3-.1,5.4-2.5,5.5-5.5v-3.9c9.9-.7,17.4-9.4,16.6-19.3-.7-9.7-9.1-17.1-18.8-16.6h-7.1c-3.6.1-6.7-2.7-6.8-6.3-.1-3.6,2.7-6.7,6.3-6.8.2,0,.3,0,.5,0h0Z"/>
      <path class="cls-1" d="M145.2,174.1c-1.1,1.1-1.7,2.5-1.7,4,0,.4,0,.8.1,1.1,0,.4.2.7.3,1.1.1.4.3.7.5,1,.2.3.4.6.7.9.3.3.6.5.9.7.3.2.7.4,1,.5.3.1.7.3,1.1.3.4,0,.7.1,1.1.1,1.5,0,3-.6,4.1-1.7.3-.3.5-.6.7-.9.2-.3.4-.7.5-1,.1-.3.2-.7.3-1.1,0-.4.1-.8.1-1.1,0-3.2-2.6-5.7-5.8-5.7-1.5,0-3,.6-4,1.7h0Z"/>
      <path class="cls-1" d="M270.8,181.3c.2.3.5.6.7.9,2.2,2.2,5.8,2.3,8.1,0,.3-.3.5-.6.7-.9.2-.3.4-.6.5-1,.1-.3.3-.7.3-1.1,0-.4.1-.7.1-1.1.1-3.2-2.3-5.8-5.5-6s-5.8,2.3-6,5.5c0,.2,0,.3,0,.5,0,.4,0,.7.1,1.1,0,.4.2.7.3,1.1.1.3.3.7.5,1Z"/>
      <path class="cls-1" d="M415.5,317.6c-11.1-8.7-27-7.5-36.7,2.8l-36.3,39.2c-2.2,2.2-2.2,5.9,0,8.1s5.9,2.2,8.1,0c.1-.1.2-.2.3-.3l36.3-39.2c5.5-5.9,14.7-6.6,21.1-1.6,6.7,5.3,7.9,15.1,2.5,21.9,0,0,0,.1-.1.2l-63.1,77.2c-4.6,5.6-11.1,9.3-18.3,10.4l-122.2,17.7c-12.6,1.9-23.6,9.5-29.8,20.6l-3.3,6H61.5l58.2-86.1c17-25.3,46.6-39.1,76.9-35.8,9.9,1,19.6,3.2,28.9,6.4,6.4,2.3,13.1,3.5,19.8,3.5h58.4c9.3,0,16.9,7.6,16.9,16.9,0,10.1-8.2,18.2-18.2,18.2h-53.5c-8.8,0-17.3,3.1-24,8.7l-12.6,10.4c-2.4,2.1-2.6,5.7-.5,8.1,2,2.3,5.5,2.6,7.9.7l12.6-10.4c4.7-3.9,10.6-6,16.6-6h53.6c16.4,0,29.7-13.3,29.7-29.7,0-15.7-12.7-28.3-28.4-28.4h-58.4c-5.5,0-10.9-1-16-2.8-10.2-3.5-20.8-5.9-31.5-7-34.5-3.8-68.3,11.9-87.7,40.7l-64.3,95c-1.8,2.6-1.1,6.2,1.5,8,1,.7,2.1,1,3.3,1h126.6c2.1,0,4-1.2,5-3l5-9c4.4-8,12.4-13.4,21.4-14.8l122.2-17.6c10-1.4,19.1-6.6,25.5-14.4l63.1-77.2c9.5-11.5,7.8-28.5-3.7-38-.1-.1-.2-.2-.4-.3h0Z"/>
    </g>
  </g>
</svg>