<?xml version="1.0" encoding="UTF-8"?>
<svg xmlns="http://www.w3.org/2000/svg" version="1.1" viewBox="0 0 485.2 485.2">
  <defs>
    <style>
      .cls-1 {
        fill: #a40643;
      }
    </style>
  </defs>
  <!-- Generator: Adobe Illustrator 28.7.1, SVG Export Plug-In . SVG Version: 1.2.0 Build 142)  -->
  <g>
    <g id="Capa_1">
      <g>
        <path class="cls-1" d="M287.5,186.2C283.6,89.9,257.9,0,212.3,0s-71.3,89.9-75.2,186.2c-9.2,5.2-15.8,14.7-15.8,26.1,0,16.8,13.6,30.3,30.3,30.3s30.3-13.6,30.3-30.3-5.9-19.8-14.3-25.1c4-97.6,29.9-156.8,44.7-156.8s40.7,59.2,44.7,156.8c-8.4,5.4-14.4,14.4-14.4,25.1,0,16.8,13.6,30.3,30.3,30.3s30.3-13.6,30.3-30.3-6.5-20.9-15.8-26.1Z"/>
        <g>
          <polygon class="cls-1" points="353.4 242.6 384.1 242.6 363.9 121.3 303.3 121.3 303.3 151.6 338.2 151.6 353.4 242.6"/>
          <polygon class="cls-1" points="35.8 454.9 86.4 151.6 121.3 151.6 121.3 121.3 60.7 121.3 0 485.2 272.9 485.2 272.9 454.9 35.8 454.9"/>
        </g>
        <path class="cls-1" d="M379.1,272.9c-58.6,0-106.1,47.5-106.1,106.1s47.5,106.1,106.1,106.1,106.1-47.5,106.1-106.1c0-58.6-47.5-106.1-106.1-106.1ZM357.6,443.4l-53.6-53.6,21.4-21.4,32.2,32.2,75-75,21.4,21.4-96.5,96.5Z"/>
      </g>
    </g>
  </g>
</svg>