<?xml version="1.0" encoding="UTF-8"?>
<svg xmlns="http://www.w3.org/2000/svg" version="1.1" viewBox="0 0 64 64">
  <defs>
    <style>
      .cls-1 {
        fill: #a40643;
      }
    </style>
  </defs>
  <!-- Generator: Adobe Illustrator 28.7.1, SVG Export Plug-In . SVG Version: 1.2.0 Build 142)  -->
  <g>
    <g id="Capa_1">
      <g id="Capa_1-2" data-name="Capa_1">
        <g id="_x30_1_chatting">
          <g>
            <path class="cls-1" d="M38.1,40.9c-.6,0-1-.4-1-1s.4-1,1-1h0c.6,0,1,.4,1,1s-.4,1-1,1Z"/>
            <path class="cls-1" d="M45.4,40.9c-.6,0-1-.4-1-1s.4-1,1-1h0c.6,0,1,.4,1,1s-.4,1-1,1Z"/>
            <path class="cls-1" d="M52.6,40.9c-.6,0-1-.4-1-1s.4-1,1-1h0c.6,0,1,.4,1,1s-.4,1-1,1Z"/>
            <path class="cls-1" d="M12.6,25.2c-.6,0-1-.4-1-1s.4-1,1-1h0c.6,0,1,.4,1,1s-.4,1-1,1Z"/>
            <path class="cls-1" d="M20.8,25.2c-.6,0-1-.4-1-1s.4-1,1-1h0c.6,0,1,.4,1,1s-.4,1-1,1Z"/>
            <path class="cls-1" d="M28.9,25.2c-.6,0-1-.4-1-1s.4-1,1-1h0c.6,0,1,.4,1,1s-.4,1-1,1Z"/>
            <path class="cls-1" d="M56.5,26.1h0c-3.7-3-8.3-4.4-13-3.9-1.1.1-2.1.3-3.1.6-.2-3.2-1.2-6.2-2.8-8.9-2.7-4.5-7.1-7.7-12.2-8.9-5.1-1.3-10.4-.4-14.9,2.3C1.2,12.8-1.8,24.9,3.9,34.2c.4.7.9,1.4,1.5,2.1l-2.1,6.5c0,.4,0,.7.2,1,.2.2.5.3.7.3h.3l7.8-2.2c4.9,2.3,10.5,2.5,15.5.6.6,4.2,2.7,8.1,6.2,11,4.6,3.8,10.8,5,16.5,3.2l6.6,3h.4c.2,0,.4,0,.6-.2.3-.2.4-.6.4-1l-1-5.9c.5-.5,1.1-1.1,1.5-1.6,6.2-7.5,5.1-18.7-2.4-24.9h0ZM12.8,39.9c-.2,0-.5,0-.7,0l-6.4,1.8,1.7-5.2c0-.3,0-.7-.2-1-.6-.7-1.2-1.5-1.7-2.3C.5,24.8,3.2,13.9,11.6,8.8c4.1-2.5,8.8-3.2,13.4-2.1,4.6,1.1,8.5,4,11,8,1.6,2.6,2.4,5.6,2.6,8.6-2.7,1.1-5,2.8-6.9,5.1-2.8,3.5-4.1,7.7-4,11.8-4.8,2-10.1,1.8-14.8-.5v.2ZM57.4,49.7c-.5.6-1.1,1.3-1.7,1.8-.3.2-.4.6-.3.9l.8,4.6-5.2-2.3h-.7c-5.2,1.7-10.8.7-14.9-2.8-6.7-5.5-7.7-15.4-2.2-22.1,2.7-3.2,6.4-5.3,10.6-5.7,4.2-.4,8.3.8,11.5,3.5h0c6.7,5.5,7.7,15.4,2.2,22.1h-.1Z"/>
          </g>
        </g>
      </g>
    </g>
  </g>
</svg>