<?xml version="1.0" encoding="UTF-8"?>
<svg id="Capa_1" xmlns="http://www.w3.org/2000/svg" viewBox="0 0 569.69 562.44">
  <defs>
    <style>
      .cls-1 {
        fill: #e6888e;
        fill-rule: evenodd;
      }
    </style>
  </defs>
  <g id="Icons">
    <path class="cls-1" d="M325.27,12.16c-.06.02-.12.05-.17.07-.09.03-.17.07-.27.12-14.3,5.8-27.75,13.57-39.96,23.04-.16.12-.31.23-.47.36-25.03,19.59-44.74,46.44-55.49,78.58-.08.15-.15.3-.22.47-.19.44-.31.89-.38,1.35-.42,1.33-.84,2.67-1.23,4.02-3.96,13.43-6.17,26.95-6.74,40.34-.01.07-.01.14-.01.21-.16,4.03-.19,8.05-.07,12.04-27.42-6.49-56.84-6.14-85.77,2.4-.05.01-.09.02-.14.03-33.03,9.77-60.79,28.83-81.29,53.52l-.03.05s-.03.03-.05.06l-.02.03c-9.84,11.87-18,25.04-24.24,39.1-.05.09-.09.19-.13.28-14.73,33.31-18.75,71.56-9.07,109.28.01.15.03.33.06.49.09.48.23.93.42,1.35.37,1.36.74,2.71,1.15,4.06,3.98,13.46,9.5,26.06,16.32,37.65h0c11.93,20.26,27.82,37.43,46.33,50.76.03.02.07.05.09.07.02.01.05.03.07.05,12.92,9.28,27.1,16.7,42.1,22.02.09.03.19.07.28.09,14.37,5.07,29.47,8.2,44.94,9.18-19.03,3.14-38.53,4.33-57.8,6.28-40.09,4.08-79.16,11.36-111.71,42.95-2.3,2.24-2.36,5.92-.13,8.22,2.24,2.3,5.92,2.36,8.22.13,30.47-29.58,67.25-35.91,104.79-39.73,39.39-4,79.64-5.33,115.3-24.58,14.18-4.24,27.4-10.21,39.48-17.6.03-.01.07-.01.12-.02,1.67-.27,3.07-1.22,3.93-2.53,19.33-12.61,35.58-28.96,48.02-47.73.13-.17.26-.36.36-.55,8.41-12.78,15.04-26.66,19.72-41.26.07-.19.13-.37.17-.57,5.38-17.03,8.08-35.02,7.74-53.33,33.44,15.23,70.18,16.53,106.17,20.11,37.24,3.71,73.71,9.93,104.17,39.5,2.3,2.23,5.98,2.19,8.22-.12,2.23-2.3,2.17-5.99-.13-8.22-32.55-31.6-71.32-38.76-111.11-42.73-19.77-1.96-39.77-3.1-59.31-6.44,15.78-.93,31.21-4.08,45.85-9.24.09-.03.2-.07.29-.1,15-5.31,29.17-12.73,42.08-22.01.02-.02.05-.03.08-.06.03-.02.07-.05.09-.07,29.1-20.96,51.73-51.38,62.66-88.41.41-1.35.78-2.7,1.15-4.05.19-.43.33-.88.42-1.36.02-.16.05-.33.06-.49,9.68-37.72,5.66-75.97-9.07-109.28-.03-.09-.08-.19-.13-.28-6.24-14.06-14.41-27.23-24.24-39.1l-.02-.02s-.03-.05-.05-.06l-.03-.06c-20.5-24.67-48.26-43.74-81.29-53.51-.05-.02-.09-.03-.14-.05-37.66-11.1-76.13-8.34-109.94,5.29ZM166.74,440.77c-9.56,15.07-19.37,29.96-29.42,44.63,12.65,3.79,25.85,5.99,39.29,6.44-2.95-17.13-6.24-34.16-9.87-51.08ZM132.71,187.9c-10.7,3.55-20.75,8.15-30.1,13.66,39.89,92.91,68.63,189.6,85.78,290.24,10.84-.45,21.76-2.06,32.65-4.88-18.6-101.88-48.16-201.53-88.33-299.02ZM176.55,180.01c-10.81.37-21.73,1.88-32.6,4.62,40.08,97.48,69.62,197.09,88.3,298.93,10.63-3.62,20.64-8.3,29.93-13.87-10.36-63.16-25.67-125.25-45.98-186.27l-.02-.06h0c-11.58-34.81-24.79-69.25-39.62-103.35ZM157.29,399.94c-7.13,1.85-14.25,3.64-21.39,5.36-13.16,20.78-26.72,40.98-40.48,60.43,9.55,6.35,19.78,11.64,30.48,15.77,12.81-18.63,25.25-37.61,37.27-56.88-1.88-8.25-3.85-16.49-5.88-24.68ZM262.19,407.43c3.95,18.33,7.5,36.76,10.61,55.28,13.65-9.8,25.49-21.67,35.17-35-15.31-6.49-30.59-13.25-45.79-20.29ZM119.67,409.09c-22.47,5.09-45.04,9.55-67.63,13.34,9.37,14.07,20.88,26.35,33.95,36.51,11.42-16.11,22.67-32.78,33.68-49.84ZM272.78,363.88c-6.36,2.34-12.74,4.6-19.14,6.84,1.86,7.45,3.65,14.92,5.36,22.4,18.43,8.65,36.97,16.92,55.56,24.76,5.79-9.38,10.58-19.36,14.29-29.76-18.66-7.52-37.39-15.63-56.07-24.24ZM145.54,356.18c-37.3,9.95-74.91,18.4-112.84,25.36,3.28,10.7,7.59,20.79,12.81,30.18,28.51-4.66,56.97-10.39,85.28-17.15.07-.02.14-.03.21-.06,7.81-1.86,15.63-3.81,23.42-5.84-2.81-10.88-5.78-21.72-8.88-32.5ZM337.87,337.97c-16.43,7.08-33.01,13.8-49.69,20.15,14.73,6.63,29.47,12.93,44.17,18.87,3.45-12.6,5.35-25.69,5.52-39.02ZM132.73,314.4c-35.11,9.16-70.72,16.85-106.86,23.04.12,10.86,1.36,21.86,3.85,32.82,37.82-6.92,75.34-15.34,112.56-25.25-3.05-10.24-6.23-20.45-9.55-30.61ZM331.89,293.16c-29.8,12.25-59.79,23.52-89.99,33.8,3.1,10.78,6.07,21.59,8.87,32.44,6.67-2.33,13.34-4.72,19.96-7.16.19-.07.37-.14.56-.2,22.29-8.22,44.39-17.08,66.25-26.59-.03-.51-.07-1.01-.12-1.52-.02-.21-.05-.41-.05-.62-.1-1.26-.22-2.52-.36-3.79-.03-.21-.06-.42-.07-.63-.94-8.57-2.62-17.17-5.06-25.73ZM36.55,279.32c-5.73,14.68-9.28,30.28-10.35,46.27,20.83-3.6,41.49-7.72,61.98-12.34-17.58-11.02-34.82-22.35-51.63-33.94ZM402.95,272.48c-3.63,16.92-6.92,33.95-9.87,51.09,13.44-.45,26.65-2.66,39.29-6.45-10.05-14.67-19.86-29.55-29.41-44.63ZM436.98,19.6c-40.17,97.49-69.72,197.15-88.33,299.02,10.88,2.84,21.82,4.43,32.65,4.89,17.15-100.64,45.89-197.35,85.78-290.25-9.36-5.51-19.42-10.11-30.1-13.66ZM313.65,252.4c-27.87,11.93-56.07,22.86-84.63,32.77,3.34,10.17,6.53,20.39,9.59,30.62,30.09-10.25,59.98-21.5,89.66-33.73-3.87-10.57-8.8-20.49-14.63-29.67ZM412.41,231.66c-2.05,8.2-4.01,16.42-5.89,24.67,12.02,19.26,24.46,38.25,37.27,56.89,10.71-4.13,20.94-9.43,30.48-15.78-13.77-19.45-27.32-39.66-40.48-60.43-7.14-1.72-14.27-3.5-21.38-5.35ZM58.57,240.43c-6.74,8.72-12.53,18.11-17.3,28.03,20.4,14.1,41.43,27.82,62.96,41.09,8.31-1.99,16.59-4.06,24.85-6.2-2.35-6.99-4.76-13.95-7.22-20.89-21.71-13.52-42.88-27.58-63.28-42.03ZM450.02,240.8c11.01,17.07,22.26,33.73,33.68,49.85,13.07-10.16,24.58-22.44,33.95-36.52-22.6-3.79-45.16-8.23-67.63-13.34ZM393.15,11.72c-14.84,34.1-28.04,68.54-39.62,103.32-.01.03-.02.06-.03.09h0c-13.67,41.1-25.08,82.66-34.24,124.72,9.01,12.86,16.32,27.19,21.53,42.76.08.15.15.31.22.47.19.44.31.91.38,1.36.43,1.33.84,2.66,1.23,4.01h.01c18.78-92.51,46.56-183.2,83.12-272.12-10.87-2.73-21.79-4.24-32.6-4.62ZM245.65,193.61c-8.24,20.49-17.25,41.05-26.9,61.53,2.26,6.34,4.45,12.66,6.59,19.01,8.24-2.86,16.46-5.81,24.65-8.85,8.56-18.23,16.7-36.57,24.39-54.94-8.95-6.58-18.59-12.21-28.73-16.75ZM92.7,207.92c-9.84,6.86-18.77,14.78-26.65,23.54,16,11.32,32.47,22.39,49.31,33.15-7.09-19.06-14.65-37.95-22.66-56.69ZM283.83,217.89c-5.86,13.87-11.96,27.72-18.3,41.52,13.87-5.35,27.67-10.94,41.38-16.79-6.81-9.13-14.58-17.4-23.08-24.73ZM424.15,187.89c-3.1,10.79-6.07,21.63-8.88,32.5,7.79,2.03,15.6,3.98,23.42,5.85.07.01.14.03.21.05,28.31,6.76,56.77,12.49,85.28,17.15,5.22-9.41,9.55-19.49,12.81-30.18-37.91-6.94-75.53-15.41-112.84-25.36ZM189.25,180.1c8.49,19.74,16.45,39.6,23.87,59.57,7.73-16.8,15-33.64,21.75-50.42-3.21-1.16-6.46-2.22-9.75-3.17-.15-.05-.31-.08-.47-.14-11.45-3.28-23.32-5.27-35.4-5.84ZM231.82,169.68c.02,2.12.09,4.23.21,6.34,4.2,1.31,8.32,2.8,12.39,4.44.06.02.12.05.17.07.09.02.17.07.27.1,14.3,5.81,27.75,13.57,39.96,23.06.16.12.31.23.47.36,8.99,7.02,17.28,14.99,24.72,23.8,1.92-8.5,3.94-16.96,6.05-25.43-28.4-9.88-56.52-20.8-84.23-32.74ZM436.97,146.11c-3.31,10.16-6.5,20.38-9.55,30.61,37.2,9.92,74.72,18.33,112.56,25.25,2.49-10.96,3.74-21.96,3.85-32.82-36.12-6.19-71.74-13.88-106.86-23.04ZM237.82,124.87c-3.07,10.75-4.93,21.57-5.66,32.3,28.54,12.41,57.49,23.73,86.77,33.94,2.8-10.85,5.77-21.66,8.87-32.44-30.19-10.27-60.19-21.54-89.98-33.8ZM533.14,111.03c-16.81,11.58-34.05,22.9-51.63,33.94,20.49,4.6,41.15,8.72,61.98,12.34-1.08-16.01-4.62-31.6-10.35-46.27ZM256.05,84.11c-5.82,9.2-10.75,19.11-14.63,29.68,29.68,12.22,59.57,23.46,89.66,33.72,3.06-10.24,6.26-20.44,9.59-30.62-28.55-9.92-56.76-20.85-84.63-32.77ZM511.12,72.13c-20.4,14.46-41.58,28.51-63.28,42.04-2.46,6.93-4.87,13.89-7.22,20.88,8.25,2.15,16.53,4.21,24.85,6.2,21.52-13.27,42.55-26.99,62.96-41.09-4.77-9.92-10.57-19.31-17.3-28.03ZM324.04,25.32c-10.14,4.55-19.78,10.16-28.73,16.75,7.7,18.37,15.84,36.69,24.4,54.92,8.19,3.03,16.39,5.99,24.64,8.85,2.14-6.35,4.34-12.68,6.59-19-9.65-20.49-18.66-41.04-26.9-61.53ZM477,39.64c-8.01,18.74-15.57,37.64-22.66,56.69,16.84-10.75,33.3-21.82,49.31-33.15-7.88-8.77-16.8-16.68-26.65-23.54ZM285.86,49.6c-8.5,7.34-16.27,15.61-23.08,24.74,13.71,5.84,27.5,11.43,41.38,16.79-6.34-13.8-12.44-27.65-18.3-41.53ZM380.44,11.8c-15.72.74-31.09,3.88-45.62,9.15,6.76,16.79,14.02,33.64,21.75,50.44,7.42-19.97,15.37-39.84,23.87-59.59Z"/>
  </g>
</svg>