<?xml version="1.0" encoding="UTF-8"?>
<svg xmlns="http://www.w3.org/2000/svg" version="1.1" viewBox="0 0 569.7 562.4">
  <defs>
    <style>
      .cls-1 {
        fill: #fff;
        fill-rule: evenodd;
      }
    </style>
  </defs>
  <!-- Generator: Adobe Illustrator 28.7.1, SVG Export Plug-In . SVG Version: 1.2.0 Build 142)  -->
  <g>
    <g id="Capa_1">
      <g id="Icons">
        <path class="cls-1" d="M325.3,12.2c0,0-.1,0-.2,0,0,0-.2,0-.3.1-14.3,5.8-27.8,13.6-40,23-.2.1-.3.2-.5.4-25,19.6-44.7,46.4-55.5,78.6,0,.2-.1.3-.2.5-.2.4-.3.9-.4,1.3-.4,1.3-.8,2.7-1.2,4-4,13.4-6.2,26.9-6.7,40.3,0,0,0,.1,0,.2-.2,4-.2,8.1,0,12-27.4-6.5-56.8-6.1-85.8,2.4,0,0,0,0-.1,0-33,9.8-60.8,28.8-81.3,53.5h0c0,0,0,0,0,.1h0c-9.8,11.9-18,25.1-24.2,39.1,0,0,0,.2-.1.3-14.7,33.3-18.8,71.6-9.1,109.3,0,.1,0,.3,0,.5,0,.5.2.9.4,1.4.4,1.4.7,2.7,1.1,4.1,4,13.5,9.5,26.1,16.3,37.6h0c11.9,20.3,27.8,37.4,46.3,50.8,0,0,0,0,0,0,0,0,0,0,0,0,12.9,9.3,27.1,16.7,42.1,22,0,0,.2,0,.3,0,14.4,5.1,29.5,8.2,44.9,9.2-19,3.1-38.5,4.3-57.8,6.3-40.1,4.1-79.2,11.4-111.7,43-2.3,2.2-2.4,5.9-.1,8.2,2.2,2.3,5.9,2.4,8.2.1,30.5-29.6,67.3-35.9,104.8-39.7,39.4-4,79.6-5.3,115.3-24.6,14.2-4.2,27.4-10.2,39.5-17.6,0,0,0,0,.1,0,1.7-.3,3.1-1.2,3.9-2.5,19.3-12.6,35.6-29,48-47.7.1-.2.3-.4.4-.5,8.4-12.8,15-26.7,19.7-41.3,0-.2.1-.4.2-.6,5.4-17,8.1-35,7.7-53.3,33.4,15.2,70.2,16.5,106.2,20.1,37.2,3.7,73.7,9.9,104.2,39.5,2.3,2.2,6,2.2,8.2-.1,2.2-2.3,2.2-6-.1-8.2-32.5-31.6-71.3-38.8-111.1-42.7-19.8-2-39.8-3.1-59.3-6.4,15.8-.9,31.2-4.1,45.9-9.2,0,0,.2,0,.3-.1,15-5.3,29.2-12.7,42.1-22,0,0,0,0,0,0,0,0,0,0,0,0,29.1-21,51.7-51.4,62.7-88.4.4-1.4.8-2.7,1.2-4.1.2-.4.3-.9.4-1.4,0-.2,0-.3,0-.5,9.7-37.7,5.7-76-9.1-109.3,0,0,0-.2-.1-.3-6.2-14.1-14.4-27.2-24.2-39.1h0s0,0,0,0h0c-20.5-24.7-48.3-43.8-81.3-53.6,0,0,0,0-.1,0-37.7-11.1-76.1-8.3-109.9,5.3h0ZM166.7,440.8c-9.6,15.1-19.4,30-29.4,44.6,12.6,3.8,25.9,6,39.3,6.4-2.9-17.1-6.2-34.2-9.9-51.1h0ZM132.7,187.9c-10.7,3.6-20.8,8.1-30.1,13.7,39.9,92.9,68.6,189.6,85.8,290.2,10.8-.5,21.8-2.1,32.6-4.9-18.6-101.9-48.2-201.5-88.3-299ZM176.6,180c-10.8.4-21.7,1.9-32.6,4.6,40.1,97.5,69.6,197.1,88.3,298.9,10.6-3.6,20.6-8.3,29.9-13.9-10.4-63.2-25.7-125.2-46-186.3h0c-11.6-34.9-24.8-69.3-39.6-103.4h0ZM157.3,399.9c-7.1,1.9-14.2,3.6-21.4,5.4-13.2,20.8-26.7,41-40.5,60.4,9.6,6.4,19.8,11.6,30.5,15.8,12.8-18.6,25.2-37.6,37.3-56.9-1.9-8.2-3.9-16.5-5.9-24.7h0ZM262.2,407.4c4,18.3,7.5,36.8,10.6,55.3,13.6-9.8,25.5-21.7,35.2-35-15.3-6.5-30.6-13.2-45.8-20.3h0ZM119.7,409.1c-22.5,5.1-45,9.5-67.6,13.3,9.4,14.1,20.9,26.4,34,36.5,11.4-16.1,22.7-32.8,33.7-49.8h0ZM272.8,363.9c-6.4,2.3-12.7,4.6-19.1,6.8,1.9,7.5,3.7,14.9,5.4,22.4,18.4,8.6,37,16.9,55.6,24.8,5.8-9.4,10.6-19.4,14.3-29.8-18.7-7.5-37.4-15.6-56.1-24.2ZM145.5,356.2c-37.3,10-74.9,18.4-112.8,25.4,3.3,10.7,7.6,20.8,12.8,30.2,28.5-4.7,57-10.4,85.3-17.1,0,0,.1,0,.2,0,7.8-1.9,15.6-3.8,23.4-5.8-2.8-10.9-5.8-21.7-8.9-32.5h0ZM337.9,338c-16.4,7.1-33,13.8-49.7,20.1,14.7,6.6,29.5,12.9,44.2,18.9,3.5-12.6,5.4-25.7,5.5-39h0ZM132.7,314.4c-35.1,9.2-70.7,16.9-106.9,23,.1,10.9,1.4,21.9,3.9,32.8,37.8-6.9,75.3-15.3,112.6-25.2-3.1-10.2-6.2-20.5-9.6-30.6h0ZM331.9,293.2c-29.8,12.2-59.8,23.5-90,33.8,3.1,10.8,6.1,21.6,8.9,32.4,6.7-2.3,13.3-4.7,20-7.2.2,0,.4-.1.6-.2,22.3-8.2,44.4-17.1,66.2-26.6,0-.5,0-1-.1-1.5,0-.2,0-.4,0-.6-.1-1.3-.2-2.5-.4-3.8,0-.2,0-.4,0-.6-.9-8.6-2.6-17.2-5.1-25.7h0ZM36.5,279.3c-5.7,14.7-9.3,30.3-10.4,46.3,20.8-3.6,41.5-7.7,62-12.3-17.6-11-34.8-22.4-51.6-33.9h0ZM403,272.5c-3.6,16.9-6.9,34-9.9,51.1,13.4-.5,26.6-2.7,39.3-6.5-10-14.7-19.9-29.5-29.4-44.6h0ZM437,19.6c-40.2,97.5-69.7,197.1-88.3,299,10.9,2.8,21.8,4.4,32.6,4.9,17.1-100.6,45.9-197.4,85.8-290.2-9.4-5.5-19.4-10.1-30.1-13.7ZM313.6,252.4c-27.9,11.9-56.1,22.9-84.6,32.8,3.3,10.2,6.5,20.4,9.6,30.6,30.1-10.2,60-21.5,89.7-33.7-3.9-10.6-8.8-20.5-14.6-29.7h0ZM412.4,231.7c-2,8.2-4,16.4-5.9,24.7,12,19.3,24.5,38.2,37.3,56.9,10.7-4.1,20.9-9.4,30.5-15.8-13.8-19.5-27.3-39.7-40.5-60.4-7.1-1.7-14.3-3.5-21.4-5.4h0ZM58.6,240.4c-6.7,8.7-12.5,18.1-17.3,28,20.4,14.1,41.4,27.8,63,41.1,8.3-2,16.6-4.1,24.9-6.2-2.3-7-4.8-14-7.2-20.9-21.7-13.5-42.9-27.6-63.3-42h0ZM450,240.8c11,17.1,22.3,33.7,33.7,49.8,13.1-10.2,24.6-22.4,33.9-36.5-22.6-3.8-45.2-8.2-67.6-13.3h0ZM393.1,11.7c-14.8,34.1-28,68.5-39.6,103.3,0,0,0,0,0,0h0c-13.7,41.1-25.1,82.7-34.2,124.7,9,12.9,16.3,27.2,21.5,42.8,0,.1.1.3.2.5.2.4.3.9.4,1.4.4,1.3.8,2.7,1.2,4h0c18.8-92.5,46.6-183.2,83.1-272.1-10.9-2.7-21.8-4.2-32.6-4.6h0ZM245.6,193.6c-8.2,20.5-17.2,41.1-26.9,61.5,2.3,6.3,4.4,12.7,6.6,19,8.2-2.9,16.5-5.8,24.6-8.9,8.6-18.2,16.7-36.6,24.4-54.9-9-6.6-18.6-12.2-28.7-16.8h0ZM92.7,207.9c-9.8,6.9-18.8,14.8-26.7,23.5,16,11.3,32.5,22.4,49.3,33.1-7.1-19.1-14.7-37.9-22.7-56.7h0ZM283.8,217.9c-5.9,13.9-12,27.7-18.3,41.5,13.9-5.4,27.7-10.9,41.4-16.8-6.8-9.1-14.6-17.4-23.1-24.7h0ZM424.1,187.9c-3.1,10.8-6.1,21.6-8.9,32.5,7.8,2,15.6,4,23.4,5.9,0,0,.1,0,.2,0,28.3,6.8,56.8,12.5,85.3,17.1,5.2-9.4,9.5-19.5,12.8-30.2-37.9-6.9-75.5-15.4-112.8-25.4h0ZM189.2,180.1c8.5,19.7,16.4,39.6,23.9,59.6,7.7-16.8,15-33.6,21.8-50.4-3.2-1.2-6.5-2.2-9.8-3.2-.1,0-.3,0-.5-.1-11.4-3.3-23.3-5.3-35.4-5.8h0ZM231.8,169.7c0,2.1,0,4.2.2,6.3,4.2,1.3,8.3,2.8,12.4,4.4,0,0,.1,0,.2,0,0,0,.2,0,.3.1,14.3,5.8,27.8,13.6,40,23.1.2.1.3.2.5.4,9,7,17.3,15,24.7,23.8,1.9-8.5,3.9-17,6-25.4-28.4-9.9-56.5-20.8-84.2-32.7h0ZM437,146.1c-3.3,10.2-6.5,20.4-9.5,30.6,37.2,9.9,74.7,18.3,112.6,25.2,2.5-11,3.7-22,3.8-32.8-36.1-6.2-71.7-13.9-106.9-23h0ZM237.8,124.9c-3.1,10.7-4.9,21.6-5.7,32.3,28.5,12.4,57.5,23.7,86.8,33.9,2.8-10.9,5.8-21.7,8.9-32.4-30.2-10.3-60.2-21.5-90-33.8h0ZM533.1,111c-16.8,11.6-34,22.9-51.6,33.9,20.5,4.6,41.2,8.7,62,12.3-1.1-16-4.6-31.6-10.3-46.3h0ZM256,84.1c-5.8,9.2-10.8,19.1-14.6,29.7,29.7,12.2,59.6,23.5,89.7,33.7,3.1-10.2,6.3-20.4,9.6-30.6-28.5-9.9-56.8-20.8-84.6-32.8h0ZM511.1,72.1c-20.4,14.5-41.6,28.5-63.3,42-2.5,6.9-4.9,13.9-7.2,20.9,8.2,2.1,16.5,4.2,24.9,6.2,21.5-13.3,42.5-27,63-41.1-4.8-9.9-10.6-19.3-17.3-28h0ZM324,25.3c-10.1,4.5-19.8,10.2-28.7,16.8,7.7,18.4,15.8,36.7,24.4,54.9,8.2,3,16.4,6,24.6,8.8,2.1-6.3,4.3-12.7,6.6-19-9.6-20.5-18.7-41-26.9-61.5h0ZM477,39.6c-8,18.7-15.6,37.6-22.7,56.7,16.8-10.8,33.3-21.8,49.3-33.2-7.9-8.8-16.8-16.7-26.6-23.5ZM285.9,49.6c-8.5,7.3-16.3,15.6-23.1,24.7,13.7,5.8,27.5,11.4,41.4,16.8-6.3-13.8-12.4-27.7-18.3-41.5h0ZM380.4,11.8c-15.7.7-31.1,3.9-45.6,9.2,6.8,16.8,14,33.6,21.8,50.4,7.4-20,15.4-39.8,23.9-59.6Z"/>
      </g>
    </g>
  </g>
</svg>